<svg id="Layer_1" enable-background="new 0 0 512.002 512.002" height="512" viewBox="0 0 512.002 512.002" width="512" xmlns="http://www.w3.org/2000/svg"><path d="m393.538 246.225-9.537-9.537v-192.686c0-39.335-47.624-58.572-75.121-31.112-8.305 8.318-12.879 19.367-12.879 31.112v86.084c-28.111-23.249-70.452-3.962-71.954 32.04-24.801-20.568-62.689-8.247-70.677 22.974-21.228-17.459-53.438-8.737-62.938 17.166-1.497 1.454-2.43 3.484-2.43 5.736v164c0 77.196 62.804 140 140 140h56c27.244 0 53.666-7.839 76.409-22.669 3.701-2.413 4.745-7.37 2.332-11.071-2.414-3.701-7.368-4.745-11.07-2.332-20.139 13.131-43.538 20.071-67.671 20.071h-56c-68.374 0-124-55.626-124-124v-68.021c21.773 16.383 53.6 6.609 62.083-19.754 28.082 26.09 73.917 5.959 73.917-32.224v-30.084c9.434 7.803 21.95 11.567 34.86 9.546 2.273 11.238 7.76 21.575 16 29.873 27.522 27.944 33.886 31.973 36.486 45.042-59.431 11.607-103.346 64.306-103.346 125.624 0 4.418 3.582 8 8 8s8-3.582 8-8c0-55.917 41.726-103.64 97.057-111.01 3.975-.53 6.943-3.92 6.943-7.93 0-13.282-5.247-25.92-14.439-35.234l-27.324-27.743c-16.802-16.921-16.783-44.256.146-61.152 3.103-3.096 8.157-3.078 11.27.036l68.57 68.57c16.623 16.623 25.777 38.721 25.777 62.223v52.24c0 20.435-5.076 40.689-14.679 58.576-2.883 5.37 1.075 11.786 7.042 11.786 2.852 0 5.612-1.529 7.056-4.217 10.848-20.205 16.581-43.077 16.581-66.144v-52.24c-.001-27.779-10.82-53.894-30.464-73.539zm-241.537 25.777c0 13.234-10.767 24-24 24s-24-10.766-24-24v-56c0-13.234 10.767-24 24-24s24 10.766 24 24zm72-20c0 15.439-12.561 28-28 28s-28-12.561-28-28c0-12.313 0-44.175 0-56 0-15.439 12.561-28 28-28s28 12.561 28 28zm72-78.138c-9.2 5.324-20.802 21.849-22.167 41.525-17.484 3.701-33.833-9.67-33.833-27.388v-24c0-7.476 2.913-14.511 8.193-19.799 17.5-17.474 47.807-5.231 47.807 19.799zm72 46.824-43.033-43.033c-3.659-3.659-8.217-5.868-12.967-6.668 0-19.863 0-113.148 0-126.985 0-15.367 12.415-28 28-28 15.439 0 28 12.561 28 28z"/><path d="m376.039 455.104c-.432.477-.939 1.027-1.39 1.515-4.748 5.15-1.014 13.423 5.88 13.423 3.807 0 5.627-2.273 7.373-4.202 2.965-3.276 2.713-8.334-.563-11.299-3.277-2.967-8.336-2.713-11.3.563z"/></svg>